<svg cache-id="73358fd50eae4751b65787ebfe8ee12e" id="eSKvdMczfY11" xmlns="http://www.w3.org/2000/svg" xmlns:xlink="http://www.w3.org/1999/xlink" viewBox="0 0 298.232 291" shape-rendering="geometricPrecision" text-rendering="geometricPrecision"><g transform="translate(-16059.232422-14400)"><rect width="5" height="289" rx="2.5" ry="2.5" transform="translate(16107.232422 14400)"/><g><rect width="5" height="61.733" rx="0" ry="0" transform="matrix(.707107 0.707107-.707107 0.707107 16150.859375 14400.24707)"/><rect width="5" height="298.232" rx="2.5" ry="2.5" transform="matrix(0 1-1 0 16357.464844 14686)"/><rect width="187" height="5" rx="2.5" ry="2.5" transform="translate(16107.232422 14400)"/><rect width="5" height="49" rx="2.5" ry="2.5" transform="translate(16289.232422 14401)"/><g><rect width="5" height="56" rx="2.5" ry="2.5" transform="matrix(.707107 0.707107-.707107 0.707107 16289.197266 14498.24707)"/><rect width="5" height="56" rx="2.5" ry="2.5" transform="matrix(.707107 0.707107-.707107 0.707107 16291.197266 14565.24707)"/><rect width="5" height="56" rx="2.5" ry="2.5" transform="matrix(.707107-.707107 0.707107 0.707107 16290.732422 14501.782227)"/><path d="M5,2.5v51C5,54.880712,3.880712,56,2.5,56s-2.5-1.119288-2.5-2.5v-51c0-1.381,5-1.381,5,0Z" transform="matrix(.707107-.707107 0.707107 0.707107 16288.732422 14568.783203)"/><g transform="matrix(-1.068038 0 0 1.049122 16320.906686 14444.080889)"><circle r="27.5" transform="translate(27.5 27.5)" fill="none" stroke-width="5"/><circle r="25" transform="translate(27.5 27.5)" fill="none" stroke="#000" stroke-width="5"/></g><rect width="5" height="73" rx="2.5" ry="2.5" transform="translate(16289.232422 14498)"/></g></g></g><ellipse rx="139.830805" ry="105.033742" transform="matrix(-.028606 0.000057-.000076-.038083 224.707961 68.923783)" stroke-width="0"/><ellipse rx="81.017581" ry="105.033742" transform="matrix(.049372-.000098-.000076-.038083 240.807961 68.939721)" stroke-width="0"/></svg>
